<?xml version="1.0" encoding="UTF-8"?>
<!DOCTYPE svg PUBLIC "-//W3C//DTD SVG 1.1//EN" "http://www.w3.org/Graphics/SVG/1.1/DTD/svg11.dtd">
<svg xmlns="http://www.w3.org/2000/svg" version="1.1" width="500px" height="500px" style="shape-rendering:geometricPrecision; text-rendering:geometricPrecision; image-rendering:optimizeQuality; fill-rule:evenodd; clip-rule:evenodd" xmlns:xlink="http://www.w3.org/1999/xlink">
<g><path style="opacity:1" fill="#000000" d="M -0.5,-0.5 C 166.167,-0.5 332.833,-0.5 499.5,-0.5C 499.5,166.167 499.5,332.833 499.5,499.5C 332.833,499.5 166.167,499.5 -0.5,499.5C -0.5,332.833 -0.5,166.167 -0.5,-0.5 Z"/></g>
<g><path style="opacity:1" fill="#a3905c" d="M 233.5,122.5 C 289.378,118.686 331.878,140.353 361,187.5C 380.223,225.513 381.556,264.18 365,303.5C 336.959,356.449 292.792,380.615 232.5,376C 190.92,368.982 159.42,347.482 138,311.5C 121.418,279.169 118.084,245.503 128,210.5C 146.38,160.947 181.547,131.613 233.5,122.5 Z"/></g>
<g><path style="opacity:1" fill="#050402" d="M 233.5,124.5 C 298.095,121.324 342.928,149.324 368,208.5C 380.285,248.169 375.285,285.502 353,320.5C 320.062,363.933 276.562,381.099 222.5,372C 171.121,358.621 139.287,326.121 127,274.5C 118.16,217.028 137.993,172.528 186.5,141C 201.479,133.159 217.146,127.659 233.5,124.5 Z"/></g>
<g><path style="opacity:1" fill="#a5935e" d="M 283.5,135.5 C 284.497,135.47 285.164,135.97 285.5,137C 283.994,143.018 281.994,148.852 279.5,154.5C 278.369,152.926 278.202,151.259 279,149.5C 280.607,144.846 282.107,140.18 283.5,135.5 Z"/></g>
<g><path style="opacity:1" fill="#a2905c" d="M 257.5,129.5 C 258.5,129.5 259.5,129.5 260.5,129.5C 260.094,133.864 259.428,138.197 258.5,142.5C 258.581,148.022 261.248,149.856 266.5,148C 267,147.5 267.5,147 268,146.5C 269.05,141.552 269.55,136.552 269.5,131.5C 270.5,131.5 271.5,131.5 272.5,131.5C 272.297,137.343 271.297,143.009 269.5,148.5C 265.033,151.42 260.867,151.086 257,147.5C 256.425,141.478 256.591,135.478 257.5,129.5 Z"/></g>
<g><path style="opacity:1" fill="#ab9861" d="M 232.5,130.5 C 236.182,130.335 239.848,130.501 243.5,131C 246.167,133.667 246.167,136.333 243.5,139C 247.925,141.549 248.592,144.882 245.5,149C 241.582,150.156 237.582,150.656 233.5,150.5C 232.788,143.857 232.454,137.191 232.5,130.5 Z"/></g>
<g><path style="opacity:1" fill="#16130d" d="M 234.5,132.5 C 237.187,132.336 239.854,132.503 242.5,133C 244.14,135.776 243.473,137.776 240.5,139C 238.527,139.495 236.527,139.662 234.5,139.5C 234.5,137.167 234.5,134.833 234.5,132.5 Z"/></g>
<g><path style="opacity:1" fill="#9e8c5a" d="M 204.5,137.5 C 208.252,142.667 211.252,148.333 213.5,154.5C 213.167,155.167 212.833,155.833 212.5,156.5C 209.746,151.992 207.246,147.326 205,142.5C 205.108,146.995 205.608,151.495 206.5,156C 206.691,157.973 206.024,159.473 204.5,160.5C 199.882,156.593 195.715,152.259 192,147.5C 193.642,152.546 195.808,157.546 198.5,162.5C 198.192,163.308 197.692,163.975 197,164.5C 194.031,158.728 191.197,152.895 188.5,147C 189.371,145.231 190.704,144.564 192.5,145C 196,148.5 199.5,152 203,155.5C 203.255,150.613 202.755,145.78 201.5,141C 202.071,139.401 203.071,138.234 204.5,137.5 Z"/></g>
<g><path style="opacity:1" fill="#0f0d08" d="M 235.5,141.5 C 238.518,141.335 241.518,141.502 244.5,142C 245.89,144.994 244.89,146.994 241.5,148C 239.527,148.495 237.527,148.662 235.5,148.5C 235.5,146.167 235.5,143.833 235.5,141.5 Z"/></g>
<g><path style="opacity:1" fill="#a3905c" d="M 296.5,139.5 C 298.344,140.204 298.844,141.537 298,143.5C 295.961,147.745 293.794,151.912 291.5,156C 294.014,157.757 296.681,159.257 299.5,160.5C 295.214,161.204 291.547,159.87 288.5,156.5C 291.451,150.932 294.118,145.266 296.5,139.5 Z"/></g>
<g><path style="opacity:1" fill="#a8945f" d="M 232.5,158.5 C 280.163,153.738 314.33,172.738 335,215.5C 348.482,256.044 339.649,290.877 308.5,320C 282.087,340.416 252.753,346.082 220.5,337C 174.189,317.567 153.689,282.734 159,232.5C 169.038,193.296 193.538,168.629 232.5,158.5 Z"/></g>
<g><path style="opacity:1" fill="#020201" d="M 234.5,161.5 C 279.933,157.454 312.433,175.787 332,216.5C 344.798,255.14 336.632,288.64 307.5,317C 268.844,345.535 230.177,345.535 191.5,317C 164.062,290.751 155.229,259.251 165,222.5C 177.107,189.535 200.274,169.202 234.5,161.5 Z"/></g>
<g><path style="opacity:1" fill="#9f8d5a" d="M 172.5,157.5 C 179.101,160.468 185.434,163.968 191.5,168C 190.975,168.692 190.308,169.192 189.5,169.5C 186.741,166.905 184.074,167.072 181.5,170C 178.171,171.941 177.838,174.441 180.5,177.5C 178.675,178.571 177.508,177.904 177,175.5C 175.639,171.279 174.139,167.113 172.5,163C 171.245,161.113 171.245,159.28 172.5,157.5 Z"/></g>
<g><path style="opacity:1" fill="#0e0c07" d="M 174.5,161.5 C 177.757,162.462 180.757,163.962 183.5,166C 181.376,167.122 179.543,168.622 178,170.5C 176.729,167.516 175.562,164.516 174.5,161.5 Z"/></g>
<g><path style="opacity:1" fill="#a28f5c" d="M 315.5,150.5 C 325.349,153.848 327.516,159.848 322,168.5C 319.005,171.265 315.505,172.098 311.5,171C 308.999,169.327 306.666,167.493 304.5,165.5C 307.932,160.293 311.598,155.293 315.5,150.5 Z"/></g>
<g><path style="opacity:1" fill="#080604" d="M 316.5,153.5 C 322.492,155.712 323.992,159.712 321,165.5C 316.426,170.798 311.926,170.631 307.5,165C 310.715,161.291 313.715,157.458 316.5,153.5 Z"/></g>
<g><path style="opacity:1" fill="#a2905c" d="M 336.5,167.5 C 339.483,170.76 342.483,174.094 345.5,177.5C 345,177.833 344.5,178.167 344,178.5C 341.855,176.355 339.688,174.188 337.5,172C 335.248,172.05 333.582,173.216 332.5,175.5C 334.192,177.359 335.692,179.359 337,181.5C 337.688,182.332 337.521,182.998 336.5,183.5C 334.119,181.615 331.953,179.615 330,177.5C 328.04,178.292 326.54,179.625 325.5,181.5C 327.69,183.856 329.69,186.356 331.5,189C 331,189.5 330.5,190 330,190.5C 327.486,187.322 324.986,184.156 322.5,181C 326.997,176.337 331.663,171.837 336.5,167.5 Z"/></g>
<g><path style="opacity:1" fill="#a5925d" d="M 158.5,171.5 C 159.458,171.953 160.292,172.619 161,173.5C 162.009,179.535 165.009,184.202 170,187.5C 170.591,188.483 170.257,189.15 169,189.5C 167.099,188.464 165.265,187.298 163.5,186C 158.718,185.881 154.051,185.215 149.5,184C 150.6,182.977 151.933,182.477 153.5,182.5C 156.482,183.332 159.482,183.499 162.5,183C 159.987,179.286 158.653,175.453 158.5,171.5 Z"/></g>
<g><path style="opacity:1" fill="#a4915d" d="M 349.5,187.5 C 350.675,187.281 351.675,187.614 352.5,188.5C 354.87,191.877 356.037,195.544 356,199.5C 353.429,202.347 350.429,203.013 347,201.5C 338.678,210.514 337.845,209.681 344.5,199C 344.054,197.274 343.221,195.774 342,194.5C 339.75,195.708 337.583,197.041 335.5,198.5C 335.167,198 334.833,197.5 334.5,197C 339.535,193.82 344.535,190.653 349.5,187.5 Z"/></g>
<g><path style="opacity:1" fill="#0e0c07" d="M 349.5,190.5 C 351.789,191.714 353.123,193.714 353.5,196.5C 353.225,198.609 352.058,199.942 350,200.5C 347.362,199.083 345.528,196.916 344.5,194C 346.233,192.811 347.9,191.644 349.5,190.5 Z"/></g>
<g><path style="opacity:1" fill="#aa9660" d="M 141.5,199.5 C 147.176,199.334 152.843,199.501 158.5,200C 159.938,200.219 161.271,200.719 162.5,201.5C 160.314,202.221 158.147,202.887 156,203.5C 155.305,205.722 154.472,207.889 153.5,210C 154.289,211.626 155.289,213.126 156.5,214.5C 156.167,214.833 155.833,215.167 155.5,215.5C 150.348,210.848 145.348,206.015 140.5,201C 141.056,200.617 141.389,200.117 141.5,199.5 Z"/></g>
<g><path style="opacity:1" fill="#14120b" d="M 144.5,202.5 C 147.687,201.194 151.02,201.194 154.5,202.5C 153.586,204.664 152.419,206.664 151,208.5C 148.963,206.294 146.797,204.294 144.5,202.5 Z"/></g>
<g><path style="opacity:1" fill="#a7945e" d="M 356.5,211.5 C 363.809,211.666 366.309,215.333 364,222.5C 362.815,224.559 361.648,224.726 360.5,223C 362.278,220.775 362.778,218.275 362,215.5C 360.604,213.473 358.938,213.14 357,214.5C 356.857,218.619 356.19,222.619 355,226.5C 350.11,228.77 346.777,227.437 345,222.5C 343.663,218.474 344.83,215.474 348.5,213.5C 349.656,214.576 349.489,215.576 348,216.5C 347.333,218.833 347.333,221.167 348,223.5C 349.916,226.033 351.916,226.033 354,223.5C 353.984,219.205 354.817,215.205 356.5,211.5 Z"/></g>
<g><path style="opacity:1" fill="#a08e5b" d="M 134.5,217.5 C 140.105,219.152 145.772,220.652 151.5,222C 154.1,224.459 154.1,226.959 151.5,229.5C 150.77,227.659 150.103,225.825 149.5,224C 144.522,222.672 139.522,221.505 134.5,220.5C 134.5,219.5 134.5,218.5 134.5,217.5 Z"/></g>
<g><path style="opacity:1" fill="#f0c300" d="M 140.5,236.5 C 142.785,239.335 144.118,242.668 144.5,246.5C 147.85,246.335 151.183,246.502 154.5,247C 151.703,248.721 149.369,250.887 147.5,253.5C 148.76,256.423 149.26,259.423 149,262.5C 146.589,260.422 143.922,258.755 141,257.5C 138.259,258.789 135.759,260.455 133.5,262.5C 133.247,259.521 133.913,256.521 135.5,253.5C 133.208,251.343 130.875,249.176 128.5,247C 131.5,246.667 134.5,246.333 137.5,246C 139.002,242.995 140.002,239.829 140.5,236.5 Z"/></g>
<g><path style="opacity:1" fill="#f0c300" d="M 360.5,245.5 C 363.833,246.167 367.167,246.833 370.5,247.5C 367.971,249.265 365.638,251.265 363.5,253.5C 365.087,256.521 365.753,259.521 365.5,262.5C 363.241,260.455 360.741,258.789 358,257.5C 355.078,258.755 352.411,260.422 350,262.5C 349.74,259.423 350.24,256.423 351.5,253.5C 349.631,250.887 347.297,248.721 344.5,247C 347.817,246.502 351.15,246.335 354.5,246.5C 356.4,234.176 358.4,233.843 360.5,245.5 Z"/></g>
<g><path style="opacity:1" fill="#4b3d01" d="M 360.5,245.5 C 364.226,245.177 367.893,245.511 371.5,246.5C 371.376,247.107 371.043,247.44 370.5,247.5C 367.167,246.833 363.833,246.167 360.5,245.5 Z"/></g>
<g><path style="opacity:1" fill="#a5945b" d="M 303.5,239.5 C 303.5,240.833 303.5,242.167 303.5,243.5C 301.516,243.617 299.85,242.95 298.5,241.5C 295.964,240.95 293.631,241.617 291.5,243.5C 272.314,233.335 257.48,237.668 247,256.5C 246.826,263.085 245.326,269.251 242.5,275C 241.099,275.41 239.766,275.91 238.5,276.5C 220.172,275.912 201.839,275.579 183.5,275.5C 184.523,272.993 183.856,270.827 181.5,269C 182.646,268.355 183.646,267.522 184.5,266.5C 195.059,267.643 205.726,267.81 216.5,267C 217.399,268.236 218.566,269.07 220,269.5C 224.163,268.022 228.33,267.022 232.5,266.5C 234.139,257.73 234.972,248.73 235,239.5C 235.5,225.837 235.667,212.171 235.5,198.5C 225.494,198.666 215.494,198.5 205.5,198C 203.046,197.057 202.046,195.224 202.5,192.5C 202.649,190.68 203.316,189.18 204.5,188C 234.833,187.333 265.167,187.333 295.5,188C 298.107,190.105 301.107,190.938 304.5,190.5C 304.859,192.766 304.192,194.599 302.5,196C 304.5,196.333 306.5,196.667 308.5,197C 305.328,198.752 302.328,200.752 299.5,203C 286.586,205.457 275.252,211.124 265.5,220C 263.558,222.137 261.891,224.471 260.5,227C 273.259,224.702 285.592,227.035 297.5,234C 299.763,235.617 301.763,237.45 303.5,239.5 Z"/></g>
<g><path style="opacity:1" fill="#0a0906" d="M 246.5,199.5 C 256.522,199.168 266.522,199.501 276.5,200.5C 264.694,206.303 255.027,214.637 247.5,225.5C 246.502,216.859 246.169,208.192 246.5,199.5 Z"/></g>
<g><path style="opacity:1" fill="#94864c" d="M 303.5,239.5 C 318.43,255.469 319.43,272.469 306.5,290.5C 303.279,291.573 300.112,291.573 297,290.5C 296.692,291.308 296.192,291.975 295.5,292.5C 295.594,289.484 294.928,286.484 293.5,283.5C 300.22,275.045 302.387,265.379 300,254.5C 298.113,250.038 295.28,246.371 291.5,243.5C 293.631,241.617 295.964,240.95 298.5,241.5C 299.85,242.95 301.516,243.617 303.5,243.5C 303.5,242.167 303.5,240.833 303.5,239.5 Z"/></g>
<g><path style="opacity:1" fill="#877a4e" d="M 232.5,266.5 C 228.33,267.022 224.163,268.022 220,269.5C 218.566,269.07 217.399,268.236 216.5,267C 205.726,267.81 195.059,267.643 184.5,266.5C 183.646,267.522 182.646,268.355 181.5,269C 183.856,270.827 184.523,272.993 183.5,275.5C 180.833,275.5 178.167,275.5 175.5,275.5C 174.325,275.719 173.325,275.386 172.5,274.5C 168.692,268.42 170.358,265.586 177.5,266C 195.841,265.417 214.174,265.584 232.5,266.5 Z"/></g>
<g><path style="opacity:1" fill="#97999b" d="M 355.5,274.5 C 357.684,273.017 359.017,273.684 359.5,276.5C 359.16,279.018 357.826,280.185 355.5,280C 356.687,278.981 357.687,277.814 358.5,276.5C 357.995,275.081 356.995,274.415 355.5,274.5 Z"/></g>
<g><path style="opacity:1" fill="#888a8c" d="M 147.5,271.5 C 149.326,273.455 149.826,275.788 149,278.5C 148.481,277.484 147.647,276.818 146.5,276.5C 138.719,277.588 138.719,276.921 146.5,274.5C 147.386,273.675 147.719,272.675 147.5,271.5 Z"/></g>
<g><path style="opacity:1" fill="#534d34" d="M 175.5,275.5 C 178.167,275.5 180.833,275.5 183.5,275.5C 201.839,275.579 220.172,275.912 238.5,276.5C 235.016,277.165 231.349,277.499 227.5,277.5C 209.999,277.01 192.666,276.344 175.5,275.5 Z"/></g>
<g><path style="opacity:1" fill="#87898b" d="M 355.5,274.5 C 355.139,279.098 353.306,280.098 350,277.5C 349.289,275.633 349.789,274.133 351.5,273C 352.332,272.312 352.998,272.479 353.5,273.5C 351.711,274.623 351.378,275.956 352.5,277.5C 353.288,276.23 354.288,275.23 355.5,274.5 Z"/></g>
<g><path style="opacity:1" fill="#97999c" d="M 347.5,283.5 C 350.582,284.13 353.582,285.13 356.5,286.5C 354.833,287.167 353.167,287.833 351.5,288.5C 352.09,289.799 353.09,290.632 354.5,291C 351.147,291.216 348.147,290.216 345.5,288C 346.267,286.53 346.933,285.03 347.5,283.5 Z"/></g>
<g><path style="opacity:1" fill="#949698" d="M 149.5,282.5 C 150.239,282.369 150.906,282.536 151.5,283C 149.779,284.527 147.779,285.527 145.5,286C 144.549,286.718 144.383,287.551 145,288.5C 148.052,289.134 150.886,289.134 153.5,288.5C 150.407,291.399 147.24,291.733 144,289.5C 143.333,288.167 143.333,286.833 144,285.5C 145.876,284.391 147.709,283.391 149.5,282.5 Z"/></g>
<g><path style="opacity:1" fill="#121313" d="M 348.5,284.5 C 350.176,285.183 350.843,286.517 350.5,288.5C 349.5,288.5 348.5,288.5 347.5,288.5C 347.433,287.041 347.766,285.708 348.5,284.5 Z"/></g>
<g><path style="opacity:1" fill="#8c7d4b" d="M 293.5,283.5 C 294.928,286.484 295.594,289.484 295.5,292.5C 296.192,291.975 296.692,291.308 297,290.5C 300.112,291.573 303.279,291.573 306.5,290.5C 305.206,292.907 303.539,295.074 301.5,297C 297.303,300.098 292.637,302.098 287.5,303C 277.772,303.891 268.106,303.557 258.5,302C 257.5,301 256.5,300 255.5,299C 256.833,298.667 258.167,298.333 259.5,298C 259.167,297.667 258.833,297.333 258.5,297C 254.476,295.694 250.809,293.86 247.5,291.5C 248.167,291.167 248.833,290.833 249.5,290.5C 251.626,291.786 253.959,292.619 256.5,293C 270.743,296.334 283.076,293.167 293.5,283.5 Z"/></g>
<g><path style="opacity:1" fill="#121313" d="M 152.5,295.5 C 156.223,295.358 157.056,296.691 155,299.5C 154.292,298.619 153.458,297.953 152.5,297.5C 152.5,296.833 152.5,296.167 152.5,295.5 Z"/></g>
<g><path style="opacity:1" fill="#989b9d" d="M 152.5,295.5 C 152.5,296.167 152.5,296.833 152.5,297.5C 150.854,297.458 149.188,297.458 147.5,297.5C 148.85,296.05 150.516,295.383 152.5,295.5 Z"/></g>
<g><path style="opacity:1" fill="#797a7c" d="M 342.5,295.5 C 345.874,295.674 349.207,296.174 352.5,297C 349.94,297.227 348.274,298.56 347.5,301C 349.905,302.615 349.905,303.281 347.5,303C 344.8,301.143 343.134,298.643 342.5,295.5 Z"/></g>
<g><path style="opacity:1" fill="#989b9d" d="M 152.5,297.5 C 153.458,297.953 154.292,298.619 155,299.5C 157.056,296.691 156.223,295.358 152.5,295.5C 155.115,292.761 156.781,293.427 157.5,297.5C 157.392,298.442 157.059,299.275 156.5,300C 154.22,300.233 152.22,301.066 150.5,302.5C 150.167,302.333 149.833,302.167 149.5,302C 151.141,300.871 152.141,299.371 152.5,297.5 Z"/></g>
<g><path style="opacity:1" fill="#949698" d="M 339.5,307.5 C 337.71,308.013 336.044,308.513 334.5,309C 336,306.833 337.5,304.667 339,302.5C 338.474,304.227 338.641,305.894 339.5,307.5 Z"/></g>
<g><path style="opacity:1" fill="#a2a4a7" d="M 156.5,306.5 C 155.998,308.085 154.998,308.585 153.5,308C 154.244,306.961 155.244,306.461 156.5,306.5 Z"/></g>
<g><path style="opacity:1" fill="#999b9d" d="M 339.5,307.5 C 342.372,307.635 343.872,308.969 344,311.5C 342.333,310.267 340.833,308.933 339.5,307.5 Z"/></g>
<g><path style="opacity:1" fill="#929496" d="M 156.5,306.5 C 157.755,304.359 159.422,303.693 161.5,304.5C 160.627,306.413 159.627,308.247 158.5,310C 159.833,310 161.167,310 162.5,310C 156.985,315.208 155.652,314.374 158.5,307.5C 158.043,306.702 157.376,306.369 156.5,306.5 Z"/></g>
<g><path style="opacity:1" fill="#a1a3a5" d="M 330.5,315.5 C 331.204,313.656 332.537,313.156 334.5,314C 333.099,314.41 331.766,314.91 330.5,315.5 Z"/></g>
<g><path style="opacity:1" fill="#96999b" d="M 330.5,315.5 C 330.47,316.497 330.97,317.164 332,317.5C 333.333,316.833 334.667,316.167 336,315.5C 336.765,315.57 337.265,315.903 337.5,316.5C 335.534,317.441 333.534,318.441 331.5,319.5C 329.466,318.426 329.133,317.093 330.5,315.5 Z"/></g>
<g><path style="opacity:1" fill="#9da0a2" d="M 337.5,316.5 C 339.349,320.494 338.015,321.994 333.5,321C 336.447,320.888 337.78,319.388 337.5,316.5 Z"/></g>
<g><path style="opacity:1" fill="#9c9ea0" d="M 170.5,317.5 C 171.451,318.919 171.784,320.585 171.5,322.5C 173.199,322.34 174.866,322.506 176.5,323C 173.007,324.032 169.673,325.032 166.5,326C 169.078,323.772 170.411,320.939 170.5,317.5 Z"/></g>
<g><path style="opacity:1" fill="#949698" d="M 177.5,327.5 C 184.404,327.806 185.737,330.639 181.5,336C 176.545,337.376 174.379,335.542 175,330.5C 176.045,329.627 176.878,328.627 177.5,327.5 Z"/></g>
<g><path style="opacity:1" fill="#060606" d="M 178.5,328.5 C 180.948,328.085 182.281,329.085 182.5,331.5C 182.225,333.609 181.058,334.942 179,335.5C 175.88,333.533 175.713,331.199 178.5,328.5 Z"/></g>
<g><path style="opacity:1" fill="#858789" d="M 317.5,333.5 C 316.058,331.183 316.392,329.016 318.5,327C 322.349,326.432 324.682,328.099 325.5,332C 325,334.5 323.5,336 321,336.5C 319.05,336.293 317.884,335.293 317.5,333.5 Z"/></g>
<g><path style="opacity:1" fill="#09090a" d="M 317.5,333.5 C 317.015,328.841 318.848,327.508 323,329.5C 323.494,331.134 323.66,332.801 323.5,334.5C 321.379,334.675 319.379,334.341 317.5,333.5 Z"/></g>
<g><path style="opacity:1" fill="#a2a5a7" d="M 186.5,342.5 C 185.296,339.261 186.296,336.595 189.5,334.5C 189.833,334.667 190.167,334.833 190.5,335C 188.46,337.185 187.126,339.685 186.5,342.5 Z"/></g>
<g><path style="opacity:1" fill="#a3a5a7" d="M 308.5,334.5 C 310.379,334.393 310.712,334.893 309.5,336C 311.388,337.95 312.554,340.117 313,342.5C 311.285,340.241 309.452,338.074 307.5,336C 308.056,335.617 308.389,335.117 308.5,334.5 Z"/></g>
<g><path style="opacity:1" fill="#9da0a2" d="M 186.5,342.5 C 187.496,342.414 188.329,342.748 189,343.5C 191.043,341.792 192.71,339.792 194,337.5C 193.804,341.696 191.638,343.862 187.5,344C 186.944,343.617 186.611,343.117 186.5,342.5 Z"/></g>
<g><path style="opacity:1" fill="#9a9d9f" d="M 301.5,345.5 C 300.504,345.586 299.671,345.252 299,344.5C 299,345.833 299,347.167 299,348.5C 297.708,346.751 296.542,344.918 295.5,343C 298.082,342.458 300.082,343.292 301.5,345.5 Z"/></g>
<g><path style="opacity:1" fill="#919395" d="M 301.5,345.5 C 302.239,345.631 302.906,345.464 303.5,345C 301.935,343.129 301.269,341.296 301.5,339.5C 304.036,342.184 305.036,345.184 304.5,348.5C 303.145,347.812 302.145,346.812 301.5,345.5 Z"/></g>
<g><path style="opacity:1" fill="#a1a4a6" d="M 198.5,340.5 C 201.183,340.663 202.85,341.996 203.5,344.5C 201.3,346.253 200.133,348.586 200,351.5C 199.667,349.833 199.333,348.167 199,346.5C 198.08,346.07 197.247,345.736 196.5,345.5C 197.456,343.925 198.123,342.258 198.5,340.5 Z"/></g>
<g><path style="opacity:1" fill="#030303" d="M 199.5,342.5 C 200.995,342.415 201.995,343.081 202.5,344.5C 199.623,345.911 198.623,345.244 199.5,342.5 Z"/></g>
<g><path style="opacity:1" fill="#909294" d="M 214.5,347.5 C 221.836,348.396 223.17,351.563 218.5,357C 216.559,357.743 214.726,357.576 213,356.5C 213.158,353.498 213.658,350.498 214.5,347.5 Z"/></g>
<g><path style="opacity:1" fill="#070707" d="M 215.5,349.5 C 217.948,349.085 219.281,350.085 219.5,352.5C 218.439,356.733 216.772,357.233 214.5,354C 215.148,352.56 215.481,351.06 215.5,349.5 Z"/></g>
<g><path style="opacity:1" fill="#787a7c" d="M 275.5,349.5 C 277.346,349.222 278.68,349.889 279.5,351.5C 278.313,351.554 276.98,351.887 275.5,352.5C 277.567,353.134 279.4,354.134 281,355.5C 280.854,358.949 279.021,360.115 275.5,359C 275.043,358.586 274.709,358.086 274.5,357.5C 275.995,357.522 277.662,357.189 279.5,356.5C 274.343,355.773 273.01,353.439 275.5,349.5 Z"/></g>
<g><path style="opacity:1" fill="#9d9fa1" d="M 290.5,345.5 C 292.539,347.785 293.706,350.451 294,353.5C 292.155,351.133 290.989,348.467 290.5,345.5 Z"/></g>
<g><path style="opacity:1" fill="#a1a3a6" d="M 226.5,351.5 C 228.467,351.261 230.301,351.594 232,352.5C 230.751,355.36 230.418,358.36 231,361.5C 230.1,359.602 228.934,357.936 227.5,356.5C 226.749,357.376 226.249,358.376 226,359.5C 225.398,356.779 225.565,354.113 226.5,351.5 Z"/></g>
<g><path style="opacity:1" fill="#080808" d="M 227.5,352.5 C 232.833,353.5 232.833,354.5 227.5,355.5C 227.5,354.5 227.5,353.5 227.5,352.5 Z"/></g>
<g><path style="opacity:1" fill="#8b8d8f" d="M 266.5,351.5 C 267.931,351.881 268.764,352.881 269,354.5C 269.768,363.019 269.102,363.352 267,355.5C 266.336,362.864 264.669,363.198 262,356.5C 261.256,362.928 260.423,362.761 259.5,356C 259.833,354.833 260.167,353.667 260.5,352.5C 262.063,353.945 263.396,355.611 264.5,357.5C 265.295,355.505 265.961,353.505 266.5,351.5 Z"/></g>
<g><path style="opacity:1" fill="#797a7c" d="M 237.5,352.5 C 244.662,352.613 244.995,353.613 238.5,355.5C 243.833,356.833 243.833,358.167 238.5,359.5C 239.665,360.584 240.998,361.417 242.5,362C 240.527,362.495 238.527,362.662 236.5,362.5C 236.342,359.098 236.676,355.764 237.5,352.5 Z"/></g>
<g><path style="opacity:1" fill="#888a8c" d="M 250.5,353.5 C 251.376,353.369 252.043,353.702 252.5,354.5C 253.69,357.174 254.524,359.84 255,362.5C 252.667,359.833 250.333,359.833 248,362.5C 248.301,359.421 249.134,356.421 250.5,353.5 Z"/></g>
</svg>
